<svg width="17" height="20" viewBox="0 0 17 20" fill="none" xmlns="http://www.w3.org/2000/svg">
<path d="M15.3005 1.7C14.9005 1.4 14.4005 1.2 13.9005 1.2H11.0005C10.8005 0.500001 10.1005 0 9.40049 0H6.50049C5.80049 0 5.10049 0.500001 4.90049 1.2H2.10049C0.900489 1.2 0.000488281 2.2 0.000488281 3.3V17.9C0.000488281 19.1 1.00049 20 2.10049 20H13.9005C15.1005 20 16.0005 19 16.0005 17.9V3.3C16.1005 2.6 15.8005 2.1 15.3005 1.7ZM5.80049 15.8L3.80049 17.7C3.70049 17.8 3.50049 17.9 3.30049 17.9C3.10049 17.9 3.00049 17.8 2.80049 17.7L1.90049 16.8C1.80049 16.7 1.70049 16.5 1.70049 16.4C1.70049 16.2 1.80049 16.1 1.90049 15.9C2.10049 15.7 2.50049 15.7 2.80049 15.9L3.30049 16.4L4.90049 14.9C5.10049 14.7 5.50049 14.7 5.80049 14.9C5.90049 15 5.90049 15.2 5.90049 15.4C5.90049 15.5 5.90049 15.7 5.80049 15.8ZM5.80049 10.9L3.80049 12.8C3.60049 13 3.50049 13 3.30049 13C3.10049 13 3.00049 12.9 2.80049 12.8L1.90049 12C1.80049 11.9 1.70049 11.7 1.70049 11.6C1.70049 11.4 1.80049 11.3 1.90049 11.1C2.10049 10.9 2.50049 10.9 2.80049 11.1L3.30049 11.6L4.90049 10.1C5.10049 9.9 5.50049 9.9 5.80049 10.1C5.90049 10.2 6.00049 10.4 6.00049 10.6C5.90049 10.7 5.90049 10.8 5.80049 10.9ZM5.80049 6L3.80049 7.9C3.70049 8 3.50049 8.1 3.30049 8.1C3.10049 8.1 3.00049 8 2.80049 7.9L1.90049 7C1.80049 6.9 1.70049 6.7 1.70049 6.6C1.70049 6.4 1.80049 6.3 1.90049 6.1C2.10049 5.9 2.50049 5.9 2.80049 6.1L3.30049 6.6L4.90049 5.1C5.10049 4.9 5.50049 4.9 5.80049 5.1C6.00049 5.3 6.00049 5.7 5.80049 6ZM6.30049 2.4V1.7C6.30049 1.6 6.40049 1.5 6.40049 1.5H9.30049C9.40049 1.5 9.40049 1.6 9.40049 1.7V2.4C9.40049 2.5 9.30049 2.6 9.30049 2.6H6.40049C6.40049 2.6 6.30049 2.5 6.30049 2.4ZM13.1005 16.9H8.40049C8.00049 16.9 7.70049 16.5 7.70049 16.1C7.70049 15.7 8.00049 15.3 8.40049 15.3H13.1005C13.5005 15.3 13.8005 15.7 13.8005 16.1C13.8005 16.5 13.5005 16.9 13.1005 16.9ZM13.1005 12.1H8.40049C8.00049 12.1 7.70049 11.7 7.70049 11.3C7.70049 10.9 8.00049 10.5 8.40049 10.5H13.1005C13.5005 10.5 13.8005 10.9 13.8005 11.3C13.8005 11.7 13.5005 12.1 13.1005 12.1ZM13.1005 7.9H8.40049C8.00049 7.9 7.70049 7.5 7.70049 7.1C7.70049 6.6 8.00049 6.3 8.40049 6.3H13.1005C13.5005 6.3 13.8005 6.7 13.8005 7.1C13.8005 7.5 13.5005 7.9 13.1005 7.9Z" fill="#A3A8AF"/>
</svg>
