<svg width="24" height="25" viewBox="0 0 24 25" fill="none" xmlns="http://www.w3.org/2000/svg">
<g clip-path="url(#clip0)">
<path d="M9 11.8772C8.31 11.8772 7.75 12.4372 7.75 13.1272C7.75 13.8172 8.31 14.3772 9 14.3772C9.69 14.3772 10.25 13.8172 10.25 13.1272C10.25 12.4372 9.69 11.8772 9 11.8772ZM15 11.8772C14.31 11.8772 13.75 12.4372 13.75 13.1272C13.75 13.8172 14.31 14.3772 15 14.3772C15.69 14.3772 16.25 13.8172 16.25 13.1272C16.25 12.4372 15.69 11.8772 15 11.8772ZM12 2.1272C6.48 2.1272 2 6.6072 2 12.1272C2 17.6472 6.48 22.1272 12 22.1272C17.52 22.1272 22 17.6472 22 12.1272C22 6.6072 17.52 2.1272 12 2.1272ZM12 20.1272C7.59 20.1272 4 16.5372 4 12.1272C4 11.8372 4.02 11.5472 4.05 11.2672C6.41 10.2172 8.28 8.2872 9.26 5.8972C11.07 8.4572 14.05 10.1272 17.42 10.1272C18.2 10.1272 18.95 10.0372 19.67 9.8672C19.88 10.5772 20 11.3372 20 12.1272C20 16.5372 16.41 20.1272 12 20.1272Z" fill="#A3A8AF"/>
</g>
<defs>
<clipPath id="clip0">
<rect width="20" height="20" fill="white" transform="translate(2 2.1272)"/>
</clipPath>
</defs>
</svg>
