<svg width="24" height="24" viewBox="0 0 24 24" fill="none" xmlns="http://www.w3.org/2000/svg">
<path d="M21.9707 10.0277C21.8085 9.50402 21.3683 9.16366 20.8469 9.16366H12.5173C11.9844 9.16366 11.5557 9.50402 11.382 10.0277L9.72534 15.408L9.73688 22.6211C9.73688 23.1185 10.096 23.5636 10.5363 23.5636H11.2545C11.6947 23.5636 12.0424 23.0662 12.0424 22.5687V20.9455H21.3103V22.5687C21.3103 23.0662 21.6695 23.5636 22.1097 23.5636H22.8164C23.2566 23.5636 23.6158 23.1185 23.6158 22.6211L23.6273 20.8276V15.408L21.9707 10.0277ZM12.5173 10.4727H20.8469L22.0402 14.4H11.324L12.5173 10.4727ZM12.0424 18.3273C11.4052 18.3273 10.8838 17.7382 10.8838 17.0182C10.8838 16.2982 11.4052 15.7091 12.0424 15.7091C12.6795 15.7091 13.2008 16.2982 13.2008 17.0182C13.2008 17.7382 12.6795 18.3273 12.0424 18.3273ZM21.3103 18.3273C20.6731 18.3273 20.1519 17.7382 20.1519 17.0182C20.1519 16.2982 20.6731 15.7091 21.3103 15.7091C21.9475 15.7091 22.4689 16.2982 22.4689 17.0182C22.4689 17.7382 21.9475 18.3273 21.3103 18.3273Z" fill="#A3A8AF"/>
<path d="M14.3593 7.85455H15.5179V0H6.24979V6.54545H0.457275V23.5636H1.61578V7.85455H7.4083V1.30909H14.3593V7.85455Z" fill="black"/>
<path d="M6.24987 10.4727H3.93286V13.0909H6.24987V10.4727Z" fill="#A3A8AF"/>
<path d="M12.0424 2.6182H9.72534V5.23638H12.0424V2.6182Z" fill="#A3A8AF"/>
<path d="M6.24987 15.7091H3.93286V18.3273H6.24987V15.7091Z" fill="#A3A8AF"/>
<path d="M6.24987 20.9455H3.93286V23.5636H6.24987V20.9455Z" fill="#A3A8AF"/>
</svg>
