<svg width="138" height="100" viewBox="0 0 138 100" fill="none" xmlns="http://www.w3.org/2000/svg">
<g clip-path="url(#clip0_1434_16594)">
<path d="M24.5161 73.6397C24.2155 71.8964 23.3439 70.3334 22.7427 68.6803C21.9612 66.5462 22.352 64.8329 22.893 62.7289C23.7346 59.5429 23.7647 55.9962 22.1115 53.0806C21.6607 52.2991 21.0595 51.6078 20.6087 50.7963C20.0977 49.9246 19.8873 48.7824 19.7671 47.7906C19.6769 46.8588 19.8572 45.897 19.7971 44.9351C19.7671 44.1236 19.6168 43.3121 19.4064 42.5005C18.8052 40.2763 17.2122 37.4209 14.5672 37.4509C11.4413 37.481 10.6297 41.2682 10.7499 43.7329C10.8101 45.4461 11.1106 47.2495 10.5095 48.9027C9.84823 50.676 8.10491 51.7581 7.11303 53.3511C5.64023 55.6655 5.33966 58.7013 6.3616 61.2562C6.93269 62.6989 8.19508 63.9913 8.2552 65.6144C8.31531 67.478 6.27143 68.5901 5.3096 70.0028C3.74663 72.3472 3.65646 75.413 4.73852 77.9378C7.47371 83.6487 14.988 85.6325 20.3081 82.4164C20.3983 82.4164 20.4884 82.4164 20.5486 82.3562C23.2537 80.3124 25.1172 77.0962 24.5161 73.6397Z" fill="#BFEAFF"/>
<path d="M14.807 87.9772C14.8672 85.212 14.8972 82.4768 14.9273 79.7115C13.2441 77.848 11.8614 75.8041 10.7493 73.5498C10.599 73.2492 11.08 73.0689 11.2302 73.3695C12.2221 75.3833 13.4845 77.2769 14.9573 78.9601C14.9874 76.6156 15.0174 74.3012 15.0475 71.9568C15.0174 71.9568 15.0174 71.9267 14.9874 71.8967C13.2741 69.973 11.8013 67.869 10.599 65.5847C10.4488 65.2841 10.9297 65.1038 11.08 65.4043C12.1921 67.5083 13.5146 69.432 15.0776 71.2054C15.1076 69.0112 15.1377 66.817 15.1377 64.6529C13.9955 63.2402 12.9736 61.7374 12.0718 60.1744C11.9216 59.9039 12.3123 59.5733 12.4626 59.8738C13.2441 61.2565 14.1458 62.609 15.1076 63.8714C15.1377 61.6773 15.1377 59.5131 15.1677 57.319C15.1377 57.319 15.1076 57.2889 15.0776 57.2589C14.2961 56.3571 13.5747 55.4254 12.9134 54.4635C12.7331 54.193 13.1238 53.8925 13.3042 54.163C13.9053 55.0046 14.5065 55.8161 15.1677 56.5976C15.1677 55.1248 15.1978 53.6821 15.1978 52.2093C15.1978 51.8786 15.7088 51.8185 15.7088 52.1492C15.7088 54.163 15.6787 56.1768 15.6486 58.1906C16.1897 57.2589 16.7608 56.3271 17.3318 55.4254C17.5122 55.1549 17.9029 55.4554 17.7226 55.7259C16.9712 56.8681 16.2798 58.0103 15.6186 59.2126C15.5885 60.9859 15.5885 62.7593 15.5585 64.5327C15.5585 64.5627 15.5585 64.5627 15.5585 64.5928C15.5585 65.5847 15.5284 66.5766 15.5284 67.5685C17.0012 65.9153 18.2937 64.1119 19.3757 62.1281C19.526 61.8576 20.0069 62.068 19.8266 62.3385C18.6243 64.5026 17.1816 66.5165 15.4984 68.3199C15.4683 70.8447 15.4382 73.3695 15.4082 75.9243C16.6105 74.6319 17.8128 73.3394 19.015 72.047C19.2254 71.8065 19.6462 72.1071 19.4058 72.3475C18.0532 73.7903 16.7307 75.233 15.3781 76.6457C15.318 80.4329 15.2579 84.2201 15.1978 88.0373C15.288 88.368 14.777 88.3079 14.807 87.9772Z" fill="#49A6D6"/>
<path d="M14.4463 17.5532H114.807" stroke="#BFEAFF" stroke-width="1.9411" stroke-miterlimit="10"/>
<path d="M108.675 91.6742H20.5477C17.1813 91.6742 14.416 88.939 14.416 85.5425V13.5257C14.416 10.1593 17.1512 7.39404 20.5477 7.39404H108.675C112.042 7.39404 114.807 10.1292 114.807 13.5257V85.5425C114.807 88.939 112.072 91.6742 108.675 91.6742Z" stroke="#BFEAFF" stroke-width="1.9411" stroke-miterlimit="10"/>
<path d="M24.3351 12.5938C24.3351 13.3753 23.7039 14.0065 22.9225 14.0065C22.141 14.0065 21.5098 13.3753 21.5098 12.5938C21.5098 11.8124 22.141 11.1812 22.9225 11.1812C23.7039 11.1812 24.3351 11.8124 24.3351 12.5938Z" stroke="#BFEAFF" stroke-width="1.9411" stroke-miterlimit="10"/>
<path d="M29.8361 12.5938C29.8361 13.3753 29.2049 14.0065 28.4234 14.0065C27.6419 14.0065 27.0107 13.3753 27.0107 12.5938C27.0107 11.8124 27.6419 11.1812 28.4234 11.1812C29.2049 11.1812 29.8361 11.8124 29.8361 12.5938Z" stroke="#BFEAFF" stroke-width="1.9411" stroke-miterlimit="10"/>
<path d="M35.3361 12.5938C35.3361 13.3753 34.7049 14.0065 33.9234 14.0065C33.1419 14.0065 32.5107 13.3753 32.5107 12.5938C32.5107 11.8124 33.1419 11.1812 33.9234 11.1812C34.7049 11.1812 35.3361 11.8124 35.3361 12.5938Z" stroke="#BFEAFF" stroke-width="1.9411" stroke-miterlimit="10"/>
<path d="M61.9668 98.1666C76.7549 96.8441 123.794 100.12 119.947 94.0187C119.346 93.117 116.28 91.8847 118.805 90.9829C120.668 90.2916 124.065 89.8107 127.371 89.4801C135.997 88.5784 139.153 87.1957 136.929 85.4224C130.948 80.6734 99.1474 82.6872 82.4657 84.6108C70.6232 86.0235 56.5866 86.5946 44.2631 85.9935C34.6148 85.5125 28.5433 84.0999 17.2418 84.8813C7.20273 85.5426 5.75999 87.4362 8.73564 89.0593C10.4188 90.0812 11.6211 90.502 8.3449 91.6141C5.57964 92.6962 0.710394 93.5979 0.379765 94.8002C0.319651 96.0927 3.41553 97.2949 9.33678 97.6256C14.176 97.8961 18.5643 97.6256 23.3434 97.7458C33.9836 98.0464 40.8967 101.052 54.0618 99.6093C57.338 99.2186 59.1715 98.4672 62.7483 98.1666" fill="#F3F4F5"/>
<path opacity="0.5" d="M121.12 89.1495C127.762 89.1495 133.142 88.5483 133.142 87.7969C133.142 87.0455 127.762 86.4443 121.12 86.4443C114.477 86.4443 109.097 87.0455 109.097 87.7969C109.097 88.5483 114.477 89.1495 121.12 89.1495Z" fill="#A3A8AF"/>
<path d="M80.482 94.5898H74.5908C74.4405 94.5898 74.3203 94.7101 74.3203 94.8604C74.3203 95.0106 74.4405 95.1309 74.5908 95.1309H80.482C80.6323 95.1309 80.7525 95.0106 80.7525 94.8604C80.7525 94.68 80.6323 94.5898 80.482 94.5898Z" fill="#49A6D6"/>
<path d="M72.6969 94.5898H71.5547C71.4044 94.5898 71.2842 94.7101 71.2842 94.8604C71.2842 95.0106 71.4044 95.1309 71.5547 95.1309H72.6969C72.8472 95.1309 72.9674 95.0106 72.9674 94.8604C72.9674 94.7101 72.8472 94.5898 72.6969 94.5898Z" fill="#49A6D6"/>
<path d="M77.7171 96.6338C77.7171 96.7841 77.5969 96.9043 77.4466 96.9043H76.6952C76.5449 96.9043 76.4247 96.7841 76.4247 96.6338C76.4247 96.4835 76.5449 96.3633 76.6952 96.3633H77.4466C77.5969 96.3933 77.7171 96.4835 77.7171 96.6338ZM75.6733 96.6338C75.6733 96.7841 75.553 96.9043 75.4028 96.9043H74.1103C73.96 96.9043 73.8398 96.7841 73.8398 96.6338C73.8398 96.4835 73.96 96.3633 74.1103 96.3633H75.4028C75.553 96.3933 75.6733 96.4835 75.6733 96.6338ZM73.0884 96.6338C73.0884 96.7841 72.9681 96.9043 72.8178 96.9043H71.5254C71.3751 96.9043 71.2549 96.7841 71.2549 96.6338C71.2549 96.4835 71.3751 96.3633 71.5254 96.3633H72.8178C72.9681 96.3933 73.0884 96.4835 73.0884 96.6338Z" fill="#49A6D6"/>
<path d="M102.935 92.3955C102.784 92.3955 102.664 92.5157 102.664 92.666V93.2672C102.664 93.4174 102.784 93.5377 102.935 93.5377C103.085 93.5377 103.205 93.4174 103.205 93.2672V92.666C103.175 92.5157 103.055 92.3955 102.935 92.3955Z" fill="#49A6D6"/>
<path d="M102.244 91.7944H101.643C101.492 91.7944 101.372 91.9147 101.372 92.0649C101.372 92.2152 101.492 92.3355 101.643 92.3355H102.244C102.394 92.3355 102.514 92.2152 102.514 92.0649C102.514 91.9147 102.394 91.7944 102.244 91.7944Z" fill="#49A6D6"/>
<path d="M102.935 90.562C102.784 90.562 102.664 90.6822 102.664 90.8325V91.4337C102.664 91.584 102.784 91.7042 102.935 91.7042C103.085 91.7042 103.205 91.584 103.205 91.4337V90.8325C103.175 90.6522 103.055 90.562 102.935 90.562Z" fill="#49A6D6"/>
<path d="M104.197 91.7642H103.596C103.445 91.7642 103.325 91.8844 103.325 92.0347C103.325 92.185 103.445 92.3052 103.596 92.3052H104.197C104.347 92.3052 104.467 92.185 104.467 92.0347C104.467 91.8543 104.347 91.7642 104.197 91.7642Z" fill="#49A6D6"/>
<path d="M14.3262 5.44043C14.1759 5.44043 14.0557 5.56066 14.0557 5.71094V6.31209C14.0557 6.46237 14.1759 6.5826 14.3262 6.5826C14.4765 6.5826 14.5967 6.46237 14.5967 6.31209V5.71094C14.5967 5.56066 14.4765 5.44043 14.3262 5.44043Z" fill="#49A6D6"/>
<path d="M13.6353 4.83936H13.0342C12.8839 4.83936 12.7637 4.95958 12.7637 5.10987C12.7637 5.26015 12.8839 5.38038 13.0342 5.38038H13.6353C13.7856 5.38038 13.9058 5.26015 13.9058 5.10987C13.9058 4.95958 13.7856 4.83936 13.6353 4.83936Z" fill="#49A6D6"/>
<path d="M14.3262 3.60693C14.1759 3.60693 14.0557 3.72716 14.0557 3.87745V4.47859C14.0557 4.62888 14.1759 4.7491 14.3262 4.7491C14.4765 4.7491 14.5967 4.62888 14.5967 4.47859V3.87745C14.5967 3.72716 14.4765 3.60693 14.3262 3.60693Z" fill="#49A6D6"/>
<path d="M15.5885 4.80908H14.9873C14.837 4.80908 14.7168 4.92931 14.7168 5.0796C14.7168 5.22988 14.837 5.35011 14.9873 5.35011H15.5885C15.7387 5.35011 15.859 5.22988 15.859 5.0796C15.859 4.92931 15.7387 4.80908 15.5885 4.80908Z" fill="#49A6D6"/>
<path d="M52.2881 2.70509H58.1793C58.3296 2.70509 58.4498 2.58486 58.4498 2.43458C58.4498 2.28429 58.3296 2.16406 58.1793 2.16406H52.2881C52.1378 2.16406 52.0176 2.28429 52.0176 2.43458C52.0176 2.61492 52.1378 2.70509 52.2881 2.70509Z" fill="#49A6D6"/>
<path d="M60.0733 2.70509H61.2154C61.3657 2.70509 61.4859 2.58486 61.4859 2.43458C61.4859 2.28429 61.3657 2.16406 61.2154 2.16406H60.0733C59.923 2.16406 59.8027 2.28429 59.8027 2.43458C59.8027 2.61492 59.923 2.70509 60.0733 2.70509Z" fill="#49A6D6"/>
<path d="M55.0537 0.661139C55.0537 0.510853 55.1739 0.390625 55.3242 0.390625H56.0757C56.2259 0.390625 56.3462 0.510853 56.3462 0.661139C56.3462 0.811424 56.2259 0.931653 56.0757 0.931653H55.3242C55.1739 0.931653 55.0537 0.811424 55.0537 0.661139ZM57.0976 0.661139C57.0976 0.510853 57.2178 0.390625 57.3681 0.390625H58.6606C58.8109 0.390625 58.9311 0.510853 58.9311 0.661139C58.9311 0.811424 58.8109 0.931653 58.6606 0.931653H57.3681C57.2178 0.931653 57.0976 0.811424 57.0976 0.661139ZM59.6825 0.661139C59.6825 0.510853 59.8027 0.390625 59.953 0.390625H61.2455C61.3958 0.390625 61.516 0.510853 61.516 0.661139C61.516 0.811424 61.3958 0.931653 61.2455 0.931653H59.953C59.8027 0.931653 59.6825 0.811424 59.6825 0.661139Z" fill="#49A6D6"/>
<path d="M4.31739 25.5186H10.2086C10.3589 25.5186 10.4791 25.3983 10.4791 25.2481C10.4791 25.0978 10.3589 24.9775 10.2086 24.9775H4.31739C4.1671 24.9775 4.04688 25.0978 4.04688 25.2481C4.07693 25.3983 4.19716 25.5186 4.31739 25.5186Z" fill="#49A6D6"/>
<path d="M1.28126 25.5186H2.42343C2.57371 25.5186 2.69394 25.3983 2.69394 25.2481C2.69394 25.0978 2.57371 24.9775 2.42343 24.9775H1.28126C1.13097 24.9775 1.01074 25.0978 1.01074 25.2481C1.0408 25.3983 1.16103 25.5186 1.28126 25.5186Z" fill="#49A6D6"/>
<path d="M46.0062 0C46.0062 0 46.1264 0.871656 45.1045 0.871656C45.1045 0.871656 45.9761 0.871656 45.9761 1.71326C45.9761 1.71326 46.0663 1.052 46.8779 0.93177C46.8478 0.901713 46.1565 1.052 46.0062 0Z" fill="#49A6D6"/>
<path d="M8.19468 37.2407C8.19468 37.2407 8.31491 38.1124 7.29297 38.1124C7.29297 38.1124 8.16463 38.1124 8.16463 38.954C8.16463 38.954 8.2548 38.2927 9.06634 38.1725C9.03628 38.1424 8.34497 38.2927 8.19468 37.2407Z" fill="#49A6D6"/>
<path d="M5.24902 66.0958C5.24902 65.6149 5.63977 65.2241 6.12068 65.2241C6.60159 65.2241 6.99234 65.6149 6.99234 66.0958C6.99234 66.5767 6.60159 66.9674 6.12068 66.9674C5.63977 66.9674 5.24902 66.5767 5.24902 66.0958ZM5.66982 66.0958C5.66982 66.3362 5.88022 66.5466 6.12068 66.5466C6.36114 66.5466 6.57154 66.3362 6.57154 66.0958C6.57154 65.8553 6.36114 65.6449 6.12068 65.6449C5.88022 65.675 5.66982 65.8553 5.66982 66.0958Z" fill="#49A6D6"/>
<path d="M69.721 12.4736H68.7592C68.639 12.4736 68.5488 12.5638 68.5488 12.684C68.5488 12.8043 68.639 12.8944 68.7592 12.8944H69.721C69.8413 12.8944 69.9314 12.8043 69.9314 12.684C69.9314 12.5638 69.8413 12.4736 69.721 12.4736Z" fill="#49A6D6"/>
<path d="M76.1839 12.4736H71.2846C71.1644 12.4736 71.0742 12.5638 71.0742 12.684C71.0742 12.8043 71.1644 12.8944 71.2846 12.8944H76.1839C76.3042 12.8944 76.3943 12.8043 76.3943 12.684C76.3943 12.5939 76.3042 12.4736 76.1839 12.4736Z" fill="#49A6D6"/>
<path d="M73.8689 14.187C73.8689 14.3072 73.7787 14.3974 73.6585 14.3974H73.0574C72.9372 14.3974 72.847 14.3072 72.847 14.187C72.847 14.0667 72.9372 13.9766 73.0574 13.9766H73.6585C73.7787 13.9766 73.8689 14.0667 73.8689 14.187ZM72.1857 14.187C72.1857 14.3072 72.0956 14.3974 71.9753 14.3974H70.8933C70.773 14.3974 70.6829 14.3072 70.6829 14.187C70.6829 14.0667 70.773 13.9766 70.8933 13.9766H71.9753C72.0956 13.9766 72.1857 14.0667 72.1857 14.187ZM70.0517 14.187C70.0517 14.3072 69.9615 14.3974 69.8413 14.3974H68.7592C68.639 14.3974 68.5488 14.3072 68.5488 14.187C68.5488 14.0667 68.639 13.9766 68.7592 13.9766H69.8413C69.9315 13.9766 70.0517 14.0667 70.0517 14.187Z" fill="#49A6D6"/>
<path d="M37.2895 45.3862C37.1693 45.3862 37.0791 45.4764 37.0791 45.5966V46.1076C37.0791 46.2278 37.1693 46.318 37.2895 46.318C37.4097 46.318 37.4999 46.2278 37.4999 46.1076V45.5966C37.4999 45.4764 37.4097 45.3862 37.2895 45.3862Z" fill="#49A6D6"/>
<path d="M36.7184 44.8755H36.2075C36.0872 44.8755 35.9971 44.9657 35.9971 45.0859C35.9971 45.2061 36.0872 45.2963 36.2075 45.2963H36.7184C36.8387 45.2963 36.9288 45.2061 36.9288 45.0859C36.9288 44.9657 36.8387 44.8755 36.7184 44.8755Z" fill="#49A6D6"/>
<path d="M37.2895 43.8535C37.1693 43.8535 37.0791 43.9437 37.0791 44.0639V44.5749C37.0791 44.6951 37.1693 44.7853 37.2895 44.7853C37.4097 44.7853 37.4999 44.6951 37.4999 44.5749V44.0639C37.4999 43.9437 37.4097 43.8535 37.2895 43.8535Z" fill="#49A6D6"/>
<path d="M38.3415 44.8452H37.8305C37.7103 44.8452 37.6201 44.9354 37.6201 45.0556C37.6201 45.1758 37.7103 45.266 37.8305 45.266H38.3415C38.4617 45.266 38.5519 45.1758 38.5519 45.0556C38.5519 44.9354 38.4617 44.8452 38.3415 44.8452Z" fill="#49A6D6"/>
<path d="M118.264 28.314C118.144 28.314 118.054 28.4041 118.054 28.5244V29.0353C118.054 29.1556 118.144 29.2457 118.264 29.2457C118.384 29.2457 118.475 29.1556 118.475 29.0353V28.5244C118.505 28.4041 118.384 28.314 118.264 28.314Z" fill="#49A6D6"/>
<path d="M117.722 27.8027H117.211C117.091 27.8027 117.001 27.8929 117.001 28.0131C117.001 28.1334 117.091 28.2235 117.211 28.2235H117.722C117.843 28.2235 117.933 28.1334 117.933 28.0131C117.933 27.8929 117.843 27.8027 117.722 27.8027Z" fill="#49A6D6"/>
<path d="M118.264 26.7808C118.144 26.7808 118.054 26.8709 118.054 26.9912V27.5021C118.054 27.6224 118.144 27.7125 118.264 27.7125C118.384 27.7125 118.475 27.6224 118.475 27.5021V26.9912C118.505 26.8709 118.384 26.7808 118.264 26.7808Z" fill="#49A6D6"/>
<path d="M119.345 27.7729H118.834C118.714 27.7729 118.624 27.8631 118.624 27.9833C118.624 28.1036 118.714 28.1937 118.834 28.1937H119.345C119.466 28.1937 119.556 28.1036 119.556 27.9833C119.556 27.8631 119.466 27.7729 119.345 27.7729Z" fill="#49A6D6"/>
<path d="M114.416 12.4135H119.316C119.436 12.4135 119.526 12.3233 119.526 12.2031C119.526 12.0828 119.436 11.9927 119.316 11.9927H114.416C114.296 11.9927 114.206 12.0828 114.206 12.2031C114.206 12.3233 114.296 12.4135 114.416 12.4135Z" fill="#49A6D6"/>
<path d="M111.892 12.4135H112.854C112.974 12.4135 113.064 12.3233 113.064 12.2031C113.064 12.0828 112.974 11.9927 112.854 11.9927H111.892C111.772 11.9927 111.682 12.0828 111.682 12.2031C111.682 12.3233 111.772 12.4135 111.892 12.4135Z" fill="#49A6D6"/>
<path d="M134.494 67.9592C134.073 65.4044 132.781 63.12 131.909 60.7154C130.797 57.6196 131.308 55.1248 132.15 52.0289C133.382 47.4002 133.412 42.2003 131.008 37.9322C130.346 36.7599 129.475 35.768 128.813 34.5958C128.092 33.3334 127.761 31.6502 127.611 30.2075C127.461 28.8249 127.731 27.4422 127.671 26.0596C127.611 24.8573 127.431 23.6851 127.13 22.5129C126.259 19.2667 123.944 15.0888 120.067 15.1188C115.498 15.1789 114.326 20.6794 114.476 24.2862C114.566 26.781 115.017 29.426 114.115 31.8606C113.124 34.4756 110.599 36.0386 109.126 38.353C106.992 41.7494 106.541 46.1678 108.044 49.8949C108.885 51.9989 110.749 53.8925 110.809 56.2369C110.899 58.9721 107.894 60.5952 106.541 62.609C104.257 66.0356 104.136 70.484 105.729 74.2111C109.697 82.5369 120.698 85.4224 128.483 80.7635C128.603 80.7936 128.723 80.7635 128.843 80.6734C132.631 77.6677 135.336 72.9787 134.494 67.9592Z" fill="#8FD8FC"/>
<path d="M120.278 88.849C120.338 84.8214 120.398 80.8238 120.458 76.7961C117.994 74.091 115.98 71.0853 114.357 67.8391C114.146 67.4183 114.838 67.1478 115.048 67.5686C116.521 70.5142 118.324 73.2494 120.488 75.7141C120.549 72.3176 120.579 68.9212 120.609 65.4946C120.579 65.4646 120.549 65.4646 120.518 65.4345C117.994 62.6392 115.86 59.5734 114.086 56.2371C113.876 55.8163 114.567 55.5457 114.778 55.9665C116.401 59.0023 118.354 61.8277 120.609 64.4426C120.639 61.2566 120.669 58.0705 120.699 54.8845C119.046 52.8105 117.543 50.6464 116.25 48.332C116.01 47.9112 116.611 47.4604 116.852 47.8812C117.994 49.9251 119.286 51.8487 120.729 53.6822C120.759 50.4962 120.789 47.3402 120.819 44.1541C120.789 44.124 120.729 44.094 120.699 44.0639C119.587 42.7414 118.535 41.3888 117.543 39.9762C117.272 39.5854 117.873 39.1346 118.144 39.5253C118.986 40.7276 119.917 41.9299 120.849 43.072C120.879 40.938 120.879 38.8039 120.909 36.6999C120.909 36.219 121.661 36.1289 121.631 36.6098C121.601 39.5554 121.601 42.501 121.57 45.4165C122.352 44.0639 123.163 42.7114 124.035 41.4189C124.306 41.0282 124.877 41.479 124.636 41.8698C123.554 43.5229 122.532 45.2061 121.57 46.9494C121.54 49.5343 121.51 52.1192 121.51 54.7041C121.51 54.7342 121.51 54.7643 121.51 54.7943C121.51 56.2371 121.48 57.6798 121.48 59.1225C123.644 56.6879 125.538 54.0729 127.101 51.2175C127.341 50.7967 128.003 51.0973 127.762 51.5181C126.019 54.6741 123.915 57.5896 121.45 60.2346C121.42 63.9317 121.36 67.5986 121.3 71.2957C123.073 69.4021 124.817 67.5385 126.59 65.6449C126.921 65.3143 127.492 65.7351 127.161 66.0958C125.207 68.1998 123.254 70.2737 121.27 72.3777C121.21 77.9082 121.12 83.4387 121.029 88.9692C120.999 89.4502 120.278 89.3299 120.278 88.849Z" fill="#49A6D6"/>
<path opacity="0.5" d="M43.5717 97.6256C50.9658 97.6256 56.9471 96.3031 56.9471 94.65C56.9471 92.9968 50.9658 91.6743 43.5717 91.6743C36.1777 91.6743 30.1963 93.0269 30.1963 94.65C30.1963 96.2731 36.1777 97.6256 43.5717 97.6256Z" fill="#A3A8AF"/>
<path d="M52.4087 42.3203L38.0414 42.5007C36.7489 42.5307 35.7871 43.6428 35.9374 44.9353L39.0633 73.2791L89.2286 72.678L91.1523 48.1814C91.2424 47.3398 90.5812 46.5884 89.7095 46.5884L55.9253 46.9792L54.7231 43.6128C54.2421 42.8012 53.3705 42.3203 52.4087 42.3203Z" fill="#BFBFBF"/>
<path d="M59.9228 61.2562L51.056 62.9394C46.3971 63.8411 41.9186 60.7753 41.0169 56.1465L37.5904 38.1723C36.9592 34.9562 39.0632 31.8603 42.2793 31.2291L56.316 28.524C59.5321 27.8928 62.628 29.9968 63.2592 33.2129L66.7157 51.187C67.6175 55.876 64.5516 60.3845 59.9228 61.2562Z" fill="#E2E4E6"/>
<path d="M63.1085 30.207L62.5374 31.5596L54.3018 62.7288L61.0346 64.5022L65.0021 62.9392L63.1085 30.207Z" fill="#CACDD0"/>
<path d="M84.9002 62.9695L58.9609 59.6632L62.4175 32.4014C62.7782 29.4859 65.4533 27.4119 68.3688 27.8027L83.7581 29.7564C86.6736 30.1171 88.7476 32.7922 88.3568 35.7077L84.9002 62.9695Z" fill="#E6E8EA"/>
<path d="M86.1924 86.9251L42.3391 87.4361C39.8744 87.4661 37.7704 85.6627 37.4097 83.198L33.863 57.409C33.4722 54.4935 35.6964 51.8785 38.6721 51.8485L89.0478 51.2473C91.9934 51.2173 94.3078 53.7721 93.9772 56.7177L91.0316 82.5969C90.731 85.0315 88.6571 86.8951 86.1924 86.9251Z" fill="white"/>
<path d="M85.9219 87.6165L40.0848 88.1575C38.9126 88.1575 37.9207 87.3159 37.7404 86.1437L33.9532 58.6414C33.5023 55.4253 35.9971 52.5399 39.2432 52.5098L88.4768 51.9387C91.723 51.9087 94.2778 54.734 93.9171 57.9501L91.0617 82.9877C90.7611 85.6027 88.5369 87.5864 85.9219 87.6165Z" fill="#E6E8EA"/>
<path d="M80.6022 37.872L69.6013 36.4893C68.7296 36.3691 68.1285 35.5876 68.2487 34.746L68.2788 34.5056C68.399 33.6339 69.1805 33.0328 70.0221 33.153L81.023 34.5356C81.8946 34.6558 82.4958 35.4373 82.3755 36.2789L82.3455 36.5194C82.2553 37.361 81.4438 37.9621 80.6022 37.872Z" fill="white"/>
<path d="M79.6998 44.6347L68.6989 43.252C67.8273 43.1318 67.2261 42.3503 67.3464 41.5087L67.3764 41.2683C67.4966 40.3966 68.2781 39.7955 69.1197 39.9157L80.1206 41.2983C80.9923 41.4185 81.5934 42.2 81.4732 43.0416L81.4431 43.2821C81.353 44.1537 80.5414 44.7549 79.6998 44.6347Z" fill="white"/>
<path opacity="0.42" d="M55.504 42.8312L52.7989 41.2982L54.3318 38.5931C54.6925 37.9619 54.4821 37.1504 53.8509 36.7897C53.2197 36.429 52.4082 36.6394 52.0475 37.2706L50.5146 39.9757L47.8094 38.4428C47.1782 38.0821 46.3667 38.2925 46.006 38.9237C45.6453 39.5549 45.8557 40.3665 46.4869 40.7272L49.192 42.2601L47.6591 44.9652C47.2984 45.5964 47.5088 46.408 48.14 46.7686C48.7712 47.1293 49.5828 46.9189 49.9435 46.2877L51.4764 43.5826L54.1815 45.1155C54.8127 45.4762 55.6243 45.2658 55.985 44.6346C56.3456 43.9733 56.1352 43.1918 55.504 42.8312Z" fill="white"/>
<path opacity="0.2" d="M49.9743 83.5286L48.8622 82.4165C49.4633 83.0176 49.4633 83.9795 48.8622 84.5506L38.763 94.6497C38.1618 95.2509 37.2 95.2509 36.6289 94.6497L37.741 95.7619C38.3422 96.363 39.304 96.363 39.8751 95.7619L49.9743 85.6627C50.5754 85.0916 50.5754 84.1298 49.9743 83.5286Z" fill="white"/>
<path d="M65.9344 75.2628L62.6883 72.0166L65.9344 68.7704C66.6258 68.0791 66.6258 66.9971 65.9344 66.3058L65.7541 66.1254C65.0628 65.4341 63.9807 65.4341 63.2894 66.1254L60.0433 69.3716L56.7971 66.1254C56.1058 65.4341 55.0237 65.4341 54.3324 66.1254L54.1521 66.3058C53.4607 66.9971 53.4607 68.0791 54.1521 68.7704L57.3982 72.0166L54.122 75.2628C53.4307 75.9541 53.4307 77.0361 54.122 77.7275L54.3023 77.9078C54.9937 78.5991 56.0757 78.5991 56.767 77.9078L60.0132 74.6616L63.2594 77.9078C63.9507 78.5991 65.0327 78.5991 65.724 77.9078L65.9044 77.7275C66.6258 77.0361 66.6258 75.924 65.9344 75.2628Z" fill="#A3A8AF"/>
<path d="M53.8214 80.3727L51.5972 78.1484L42.8506 86.8951L45.0748 89.1193L53.8214 80.3727Z" fill="#1E5B89"/>
<path opacity="0.2" d="M53.4609 80.5229C52.8297 79.8917 52.3187 79.2004 51.8979 78.4489L51.6575 78.2085L50.0645 79.8015C50.5454 80.6131 51.1766 81.4246 51.8679 82.146C51.928 82.2061 51.9581 82.2361 52.0182 82.2963L53.6112 80.7032C53.521 80.6131 53.491 80.5529 53.4609 80.5229Z" fill="black"/>
<path d="M37.35 95.4313L36.5685 94.6498C35.7871 93.8383 35.7871 92.5759 36.5685 91.7944L45.9764 82.3865C46.788 81.5749 48.0504 81.5749 48.8318 82.3865L49.6133 83.168C50.3948 83.9495 50.3948 85.2419 49.6133 86.0234L40.2054 95.4313C39.424 96.2128 38.1616 96.2128 37.35 95.4313Z" fill="#F95B03"/>
<path d="M68.429 63.5707C63.8002 58.9419 56.2559 58.9419 51.6571 63.5707C47.0283 68.1995 47.0283 75.7438 51.6571 80.3426C56.2859 84.9714 63.8303 84.9714 68.429 80.3426C73.0578 75.7438 73.0578 68.2296 68.429 63.5707ZM53.2201 78.7496C49.463 74.9924 49.463 68.9209 53.2201 65.1938C56.9773 61.4367 63.0488 61.4367 66.7759 65.1938C70.533 68.9509 70.533 75.0225 66.7759 78.7496C63.0788 82.5368 57.0073 82.5368 53.2201 78.7496Z" fill="#1E5B89"/>
<path opacity="0.2" d="M67.3473 64.6828C63.3196 60.6552 56.7671 60.6552 52.7395 64.6828C48.7118 68.7105 48.7118 75.263 52.7395 79.2906C56.7671 83.3183 63.3196 83.3183 67.3473 79.2906C71.3749 75.263 71.3749 68.7105 67.3473 64.6828ZM53.2204 78.7496C49.4633 74.9924 49.4633 68.9209 53.2204 65.1938C56.9775 61.4367 63.0491 61.4367 66.7762 65.1938C70.5333 68.951 70.5333 75.0225 66.7762 78.7496C63.0791 82.5368 57.0076 82.5368 53.2204 78.7496Z" fill="black"/>
</g>
<defs>
<clipPath id="clip0_1434_16594">
<rect width="137.241" height="100" fill="white" transform="translate(0.379883)"/>
</clipPath>
</defs>
</svg>
