<svg width="20" height="20" viewBox="0 0 20 20" fill="none" xmlns="http://www.w3.org/2000/svg">
<path d="M9.91277 0C7.46667 0.00719098 5.10755 0.908165 3.27938 2.53336L2.16853 1.42251C2.05199 1.306 1.90352 1.22666 1.74189 1.19452C1.58026 1.16238 1.41273 1.17889 1.26048 1.24195C1.10823 1.30501 0.978092 1.41179 0.886521 1.5488C0.794949 1.68581 0.746056 1.84689 0.746021 2.01169V5.83339C0.746021 6.0544 0.833819 6.26637 0.990101 6.42265C1.14638 6.57893 1.35835 6.66673 1.57936 6.66673H5.40106C5.56586 6.66669 5.72694 6.6178 5.86395 6.52623C6.00096 6.43466 6.10774 6.30452 6.1708 6.15227C6.23386 6.00002 6.25037 5.83249 6.21823 5.67086C6.18609 5.50923 6.10675 5.36076 5.99024 5.24421L5.04439 4.29837C6.14815 3.35548 7.50183 2.75317 8.94118 2.56451C10.3805 2.37586 11.8437 2.60896 13.1532 3.23556C14.4627 3.86215 15.5621 4.85529 16.3183 6.09449C17.0744 7.33369 17.4546 8.7657 17.4128 10.2168C17.3592 12.0917 16.6051 13.8784 15.299 15.2247C13.993 16.571 12.2299 17.379 10.3575 17.4895C8.48512 17.5999 6.63928 17.0048 5.18402 15.8214C3.72876 14.6381 2.76972 12.9524 2.49604 11.0968C2.45696 10.7951 2.30989 10.5177 2.08207 10.3161C1.85424 10.1145 1.56108 10.0022 1.25686 10.0001C1.08033 9.99781 0.905342 10.0332 0.743592 10.104C0.581841 10.1747 0.43705 10.2792 0.318891 10.4104C0.200731 10.5415 0.111923 10.6964 0.0583993 10.8646C0.00487553 11.0329 -0.0121317 11.2106 0.00851361 11.3859C0.355359 13.8409 1.60052 16.08 3.50304 17.6699C5.40557 19.2598 7.83021 20.0874 10.3078 19.9927C12.8142 19.8719 15.1859 18.822 16.9603 17.0476C18.7347 15.2732 19.7846 12.9016 19.9054 10.3951C19.957 9.05001 19.7369 7.70833 19.2581 6.45028C18.7794 5.19223 18.0518 4.04365 17.119 3.07323C16.1861 2.10281 15.0671 1.33049 13.829 0.80244C12.5908 0.274394 11.2588 0.00147359 9.91277 0V0Z" fill="#A3A8AF"/>
<path d="M9.49611 5.83344C9.16458 5.83344 8.84664 5.96513 8.61221 6.19955C8.37779 6.43398 8.24609 6.75192 8.24609 7.08345V10.661C8.24619 11.103 8.42185 11.5268 8.73443 11.8393L10.2286 13.3335C10.4644 13.5612 10.7801 13.6872 11.1079 13.6844C11.4356 13.6815 11.7491 13.55 11.9809 13.3183C12.2127 13.0865 12.3441 12.773 12.347 12.4452C12.3498 12.1175 12.2238 11.8017 11.9961 11.566L10.7461 10.316V7.08345C10.7461 6.75192 10.6144 6.43398 10.38 6.19955C10.1456 5.96513 9.82763 5.83344 9.49611 5.83344Z" fill="#A3A8AF"/>
</svg>
