<svg width="36" height="16" viewBox="0 0 36 16" fill="none" xmlns="http://www.w3.org/2000/svg">
<path d="M30 3.55556L36 2V14.4444L30 16V3.55556Z" fill="#FF7070"/>
<path d="M0 2H36V14H0L3.5122 8L0 2Z" fill="#FF4D4D"/>
<path d="M7.924 3.432H9.136L13.648 10.38H13.672V3.432H14.752V12H13.504L9.028 5.124H9.004V12H7.924V3.432ZM20.7362 8.304C20.7042 7.808 20.5202 7.392 20.1842 7.056C19.8562 6.72 19.4442 6.552 18.9482 6.552C18.4362 6.552 18.0202 6.72 17.7002 7.056C17.3802 7.392 17.2042 7.808 17.1722 8.304H20.7362ZM21.7202 10.032C21.5842 10.72 21.2842 11.244 20.8202 11.604C20.3642 11.956 19.7802 12.132 19.0682 12.132C18.1162 12.132 17.3882 11.84 16.8842 11.256C16.3882 10.664 16.1242 9.872 16.0922 8.88C16.0922 7.944 16.3642 7.172 16.9082 6.564C17.4602 5.956 18.1602 5.652 19.0082 5.652C19.4322 5.652 19.8122 5.728 20.1482 5.88C20.4842 6.032 20.7562 6.228 20.9642 6.468C21.1722 6.708 21.3442 6.988 21.4802 7.308C21.6162 7.628 21.7082 7.948 21.7562 8.268C21.8122 8.58 21.8322 8.892 21.8162 9.204H17.1722C17.1562 9.78 17.3122 10.264 17.6402 10.656C17.9682 11.048 18.4562 11.244 19.1042 11.244C20.0002 11.244 20.5362 10.84 20.7122 10.032H21.7202ZM29.0175 12H27.9375L26.6775 7.068H26.6535L25.4055 12H24.3015L22.3095 5.796H23.4375L24.8415 10.872H24.8655L26.1135 5.796H27.2295L28.5255 10.872H28.5495L29.9415 5.796H30.9975L29.0175 12Z" fill="#F3F4F5"/>
</svg>
