<svg width="16" height="16" viewBox="0 0 16 16" fill="none" xmlns="http://www.w3.org/2000/svg">
<path d="M7.3335 4.66665V5.99998H8.66683V4.66665H7.3335Z" fill="#0088FF"/>
<path d="M7.3335 8.66665V11.3333H9.3335V9.99998H8.66683V7.33331H6.66683V8.66665H7.3335Z" fill="#0088FF"/>
<path fill-rule="evenodd" clip-rule="evenodd" d="M8.00016 1.33331C4.32016 1.33331 1.3335 4.31998 1.3335 7.99998C1.3335 11.68 4.32016 14.6666 8.00016 14.6666C11.6802 14.6666 14.6668 11.68 14.6668 7.99998C14.6668 4.31998 11.6802 1.33331 8.00016 1.33331ZM2.66683 7.99998C2.66683 10.94 5.06016 13.3333 8.00016 13.3333C10.9402 13.3333 13.3335 10.94 13.3335 7.99998C13.3335 5.05998 10.9402 2.66665 8.00016 2.66665C5.06016 2.66665 2.66683 5.05998 2.66683 7.99998Z" fill="#0088FF"/>
</svg>
