<svg width="24" height="19" viewBox="0 0 24 19" fill="none" xmlns="http://www.w3.org/2000/svg">
<path d="M1.92134 2.86942C1.92134 2.41691 1.93728 1.99183 1.91619 1.56861C1.89978 1.23423 2.05774 1.05331 2.34647 0.930533C3.17562 0.577077 4.0404 0.34547 4.92673 0.198042C7.20421 -0.180063 9.43903 -0.0135667 11.6139 0.772408C11.8895 0.871934 12.1121 0.868213 12.3877 0.772408C15.3945 -0.273543 18.3994 -0.259126 21.3954 0.827286C21.4906 0.861702 21.582 0.905884 21.6762 0.94309C21.9645 1.0561 22.0966 1.25329 22.0826 1.57233C22.0648 1.98206 22.0812 2.39319 22.0844 2.80385C22.0844 2.81687 22.0971 2.83036 22.1177 2.87175C22.2808 2.87175 22.4589 2.86524 22.6366 2.87268C23.4123 2.90524 23.9926 3.49867 23.9963 4.27953C24.0029 5.65894 23.9987 7.03834 23.9987 8.41775C23.9987 11.1301 23.9991 13.8424 23.9987 16.5547C23.9987 17.5318 23.4301 18.1001 22.4449 18.1006C19.4067 18.102 16.3685 18.102 13.3303 18.0987C13.1672 18.0987 13.0402 18.1331 12.9099 18.2448C12.383 18.6973 11.6228 18.6852 11.0791 18.2513C10.9755 18.1685 10.8203 18.1076 10.6886 18.1071C7.64292 18.0992 4.59676 18.0978 1.55106 18.1038C0.934235 18.1052 0.445836 17.8913 0.165077 17.336C0.0638352 17.136 0.00758961 16.8919 0.0071209 16.6672C-0.00178465 12.5444 -0.000847225 8.42194 0.00196505 4.29906C0.00243377 3.48425 0.595356 2.89128 1.41279 2.86989C1.5745 2.8657 1.73667 2.86942 1.92134 2.86942ZM11.5225 15.519C11.5225 15.4227 11.5225 15.3539 11.5225 15.285C11.5229 10.844 11.5215 6.40352 11.529 1.96253C11.5295 1.77929 11.4447 1.72348 11.304 1.67C10.1252 1.2226 8.90095 1.01099 7.64386 0.971459C6.08352 0.922626 4.56114 1.11796 3.09313 1.66953C2.92767 1.73185 2.87424 1.81789 2.87424 1.99183C2.87893 6.42491 2.87799 10.858 2.87846 15.2915C2.87846 15.3636 2.88924 15.4352 2.8958 15.5148C5.78588 14.5809 8.64597 14.5851 11.5225 15.519ZM21.1081 15.5152C21.1137 15.432 21.1208 15.3785 21.1208 15.3255C21.1212 10.8766 21.1198 6.4277 21.125 1.97881C21.125 1.7965 21.0528 1.72534 20.8939 1.66535C19.6082 1.18167 18.2743 0.97518 16.9047 0.964948C15.455 0.953786 14.0432 1.16167 12.6825 1.67326C12.5307 1.73046 12.4711 1.80487 12.4711 1.97555C12.4768 6.36213 12.4754 10.7492 12.4754 15.1357C12.4754 15.2567 12.4754 15.3771 12.4754 15.5208C15.3631 14.5846 18.2227 14.5814 21.1081 15.5152Z" fill="#A3A8AF"/>
<path d="M17.7386 12.3792C17.1096 12.3792 16.4942 12.3792 15.8492 12.3792C15.8492 10.8003 15.8492 9.2265 15.8492 7.62758C15.6589 7.62758 15.4977 7.63037 15.3364 7.62711C15.0454 7.6206 14.8368 7.42388 14.8326 7.15599C14.8284 6.8909 15.0351 6.68301 15.3285 6.68069C15.9762 6.67511 16.624 6.67418 17.2718 6.68162C17.5849 6.68534 17.7578 6.85091 17.7588 7.15506C17.763 8.86653 17.7606 10.5775 17.7597 12.289C17.7592 12.3099 17.7499 12.3323 17.7386 12.3792Z" fill="#A3A8AF"/>
<path d="M16.8098 3.34463C17.3324 3.34835 17.7599 3.77389 17.7608 4.29198C17.7618 4.81612 17.3156 5.25561 16.7897 5.24771C16.2577 5.2398 15.8358 4.80542 15.8429 4.27199C15.8494 3.75389 16.2797 3.34091 16.8098 3.34463Z" fill="#A3A8AF"/>
</svg>
