<svg width="15" height="14" viewBox="0 0 15 14" fill="none" xmlns="http://www.w3.org/2000/svg">
<path d="M6.921 3.66659V4.99992H8.36113V3.66659H6.921Z" fill="#0088FF"/>
<path d="M6.921 7.66659V10.3333H9.08119V8.99992H8.36113V6.33325H6.20094V7.66659H6.921Z" fill="#0088FF"/>
<path fill-rule="evenodd" clip-rule="evenodd" d="M7.64106 0.333252C3.66631 0.333252 0.44043 3.31992 0.44043 6.99992C0.44043 10.6799 3.66631 13.6666 7.64106 13.6666C11.6158 13.6666 14.8417 10.6799 14.8417 6.99992C14.8417 3.31992 11.6158 0.333252 7.64106 0.333252ZM1.88056 6.99992C1.88056 9.93992 4.46558 12.3333 7.64106 12.3333C10.8165 12.3333 13.4016 9.93992 13.4016 6.99992C13.4016 4.05992 10.8165 1.66659 7.64106 1.66659C4.46558 1.66659 1.88056 4.05992 1.88056 6.99992Z" fill="#0088FF"/>
</svg>
