<svg width="24" height="25" viewBox="0 0 24 25" fill="none" xmlns="http://www.w3.org/2000/svg">
<g clip-path="url(#clip0)">
<path d="M0 0.127197H24V24.1272H0V0.127197Z" fill="white"/>
<path d="M19 6.1272H17C17 3.3672 14.76 1.1272 12 1.1272C9.24 1.1272 7 3.3672 7 6.1272H5C3.9 6.1272 3.01 7.0272 3.01 8.1272L3 20.1272C3 21.2272 3.9 22.1272 5 22.1272H19C20.1 22.1272 21 21.2272 21 20.1272V8.1272C21 7.0272 20.1 6.1272 19 6.1272ZM12 3.1272C13.66 3.1272 15 4.4672 15 6.1272H9C9 4.4672 10.34 3.1272 12 3.1272ZM12 13.1272C9.24 13.1272 7 10.8872 7 8.1272H9C9 9.7872 10.34 11.1272 12 11.1272C13.66 11.1272 15 9.7872 15 8.1272H17C17 10.8872 14.76 13.1272 12 13.1272Z" fill="#A3A8AF"/>
</g>
<defs>
<clipPath id="clip0">
<rect width="24" height="24" fill="white" transform="translate(0 0.127197)"/>
</clipPath>
</defs>
</svg>
