<svg width="20" height="20" viewBox="0 0 20 20" fill="none" xmlns="http://www.w3.org/2000/svg">
<path d="M16.6445 10.8738L16.6068 11.1567L16.8311 11.333L18.8252 12.9005L16.9198 16.1952L14.5565 15.2459L14.2903 15.139L14.0637 15.3148C13.607 15.669 13.1063 15.9652 12.5617 16.1868L12.2954 16.2951L12.2551 16.5797L11.8979 19.0999H8.09303C8.09266 19.0989 8.09228 19.0979 8.0919 19.0967L7.73516 16.5797L7.69482 16.2951L7.42851 16.1868C6.88638 15.9662 6.39434 15.6703 5.92265 15.3118L5.69688 15.1402L5.43374 15.2459L3.07041 16.1952L1.16508 12.9006L3.17721 11.3345L3.41228 11.1515L3.36331 10.8577C3.31904 10.5921 3.30011 10.2908 3.30011 9.9999C3.30011 9.72892 3.33545 9.42926 3.38331 9.1421L3.43228 8.84828L3.19721 8.66533L1.18503 7.0992L3.08043 3.80459L5.44375 4.75387L5.70593 4.85918L5.93141 4.68892C6.39522 4.3387 6.89756 4.0331 7.43851 3.81305L7.70482 3.70472L7.74516 3.42007L8.10235 0.899902H11.9079L12.2651 3.42007L12.3054 3.70472L12.5717 3.81305C13.1138 4.03357 13.6059 4.3295 14.0776 4.68798L14.3033 4.85957L14.5665 4.75387L16.9298 3.80459L18.8351 7.09923L16.823 8.66533L16.5879 8.84828L16.6369 9.1421C16.6812 9.40801 16.7001 9.6994 16.7001 9.9999C16.7001 10.3094 16.6814 10.5973 16.6445 10.8738ZM18.8529 7.08545C18.853 7.08537 18.853 7.0853 18.8531 7.08523L18.853 7.08533L18.8529 7.08545ZM5.90011 9.9999C5.90011 12.256 7.74397 14.0999 10.0001 14.0999C12.2563 14.0999 14.1001 12.256 14.1001 9.9999C14.1001 7.74376 12.2563 5.8999 10.0001 5.8999C7.74397 5.8999 5.90011 7.74376 5.90011 9.9999Z" fill="#A3A8AF" stroke="#A3A8AF"/>
</svg>
