<svg width="36" height="16" viewBox="0 0 36 16" fill="none" xmlns="http://www.w3.org/2000/svg">
<path d="M30 3.55556L36 2V14.4444L30 16V3.55556Z" fill="#FF7070"/>
<path d="M0 2H36V14H0L3.5122 8L0 2Z" fill="#FF4D4D"/>
<path d="M12.892 5.94H13.972C13.912 4.056 12.568 3.228 10.816 3.228C9.244 3.228 7.708 4.008 7.708 5.736C7.708 8.892 13.192 7.32 13.192 9.684C13.192 10.92 12.052 11.244 11.02 11.244C9.724 11.244 8.524 10.62 8.524 9.18H7.444C7.444 11.256 9.064 12.192 10.984 12.192C12.544 12.192 14.332 11.484 14.332 9.648C14.332 6.264 8.848 7.776 8.848 5.652C8.848 4.536 9.796 4.188 10.768 4.188C11.956 4.188 12.76 4.704 12.892 5.94ZM21.0453 11.976V11.184C20.9253 11.22 20.8173 11.244 20.7333 11.244C20.4093 11.244 20.4093 11.028 20.4093 10.548V7.356C20.4093 5.904 19.1973 5.652 18.0813 5.652C16.6893 5.652 15.5133 6.192 15.4533 7.728H16.4733C16.5213 6.816 17.1573 6.552 18.0213 6.552C18.6573 6.552 19.4013 6.684 19.4013 7.584C19.4013 8.364 18.4293 8.268 17.3133 8.496C16.2573 8.688 15.2133 9 15.2133 10.404C15.2133 11.664 16.1493 12.132 17.2653 12.132C18.1293 12.132 18.8853 11.856 19.4493 11.184C19.4493 11.856 19.7853 12.132 20.3133 12.132C20.6253 12.132 20.8653 12.084 21.0453 11.976ZM19.3893 8.796V9.84C19.3893 10.416 18.8373 11.244 17.4933 11.244C16.8693 11.244 16.2933 11.004 16.2933 10.332C16.2933 8.796 18.5973 9.396 19.3893 8.796ZM22.0546 3.432V12H23.0746V3.432H22.0546ZM28.9627 8.304H25.3987C25.4587 7.344 26.1187 6.552 27.1747 6.552C28.1947 6.552 28.9027 7.332 28.9627 8.304ZM29.9467 10.032H28.9387C28.7587 10.848 28.1947 11.244 27.3307 11.244C25.9747 11.244 25.3627 10.284 25.3987 9.204H30.0427C30.1027 7.704 29.4307 5.652 27.2347 5.652C25.5427 5.652 24.3187 7.008 24.3187 8.88C24.3787 10.776 25.3147 12.132 27.2947 12.132C28.6987 12.132 29.6707 11.424 29.9467 10.032Z" fill="#F3F4F5"/>
</svg>
