<svg width="36" height="16" viewBox="0 0 36 16" fill="none" xmlns="http://www.w3.org/2000/svg">
<path d="M30 3.55556L36 2V14.4444L30 16V3.55556Z" fill="#FFBE38"/>
<path d="M0 2H36V14H0L3.5122 8L0 2Z" fill="#FFAE06"/>
<path d="M7.924 3.432V12H9.004V5.124H9.028L13.504 12H14.752V3.432H13.672V10.38H13.648L9.136 3.432H7.924ZM20.7362 8.304H17.1722C17.2322 7.344 17.8922 6.552 18.9482 6.552C19.9682 6.552 20.6762 7.332 20.7362 8.304ZM21.7202 10.032H20.7122C20.5322 10.848 19.9682 11.244 19.1042 11.244C17.7482 11.244 17.1362 10.284 17.1722 9.204H21.8162C21.8762 7.704 21.2042 5.652 19.0082 5.652C17.3162 5.652 16.0922 7.008 16.0922 8.88C16.1522 10.776 17.0882 12.132 19.0682 12.132C20.4722 12.132 21.4442 11.424 21.7202 10.032ZM29.0175 12L30.9975 5.796H29.9415L28.5495 10.872H28.5255L27.2295 5.796H26.1135L24.8655 10.872H24.8415L23.4375 5.796H22.3095L24.3015 12H25.4055L26.6535 7.068H26.6775L27.9375 12H29.0175Z" fill="#F3F4F5"/>
</svg>
