<svg width="24" height="25" viewBox="0 0 18 20" fill="none" xmlns="http://www.w3.org/2000/svg">
    <path d="M15.3 1.7C14.9 1.4 14.5 1.2 13.9 1.2H11C10.8 0.5 10.1 0 9.39998 0H6.49999C5.79999 0 5.09999 0.5 4.89999 1.2H2.1C0.900005 1.2 0 2.1 0 3.29999V17.8C0 19 0.900005 19.9 2.1 19.9H8.69998C7.59999 18.8 6.89998 17.2 6.89998 15.5C6.89998 12.1 9.69999 9.29999 13.1 9.29999C14.2 9.29999 15.2 9.59999 16 9.99999V3.2C16 2.6 15.7 2 15.3 1.7ZM5.19999 10.8C4.99999 10.9 4.8 11 4.6 11.1V11.6C4.6 12 4.29999 12.3 3.89999 12.3C3.49999 12.3 3.19999 12 3.19999 11.6V11.2C2.99999 11.2 2.8 11.1 2.6 11C2.5 10.9 2 10.7 2 10.2C2 9.99999 2.09999 9.89999 2.19999 9.69999C2.39999 9.49999 2.49999 9.49999 2.69999 9.49999C2.89999 9.49999 2.9 9.49999 3.1 9.59999C3.2 9.69999 3.3 9.69999 3.3 9.79999C3.4 9.79999 3.4 9.89999 3.49999 9.89999C3.69999 9.99999 4.1 9.99999 4.3 9.89999C4.4 9.79999 4.39999 9.79999 4.39999 9.69999C4.39999 9.59999 4.4 9.59999 4.3 9.49999C4.2 9.39999 4.2 9.39999 4.1 9.29999C4 9.19999 3.9 9.19999 3.8 9.09999H3.69999C3.59999 9.09999 3.49999 8.99999 3.39999 8.99999L3.19999 8.89999C2.99999 8.79999 2.89999 8.69999 2.69999 8.59999C2.49999 8.49999 2.4 8.29999 2.3 8.09999C2.2 7.89999 2.19999 7.69999 2.19999 7.39999C2.19999 7.09999 2.29999 6.89999 2.39999 6.69999C2.49999 6.49999 2.69999 6.29999 2.89999 6.19999C3.09999 6.09999 3.2 6.09999 3.3 5.99999V5.49999C3.3 5.09999 3.59999 4.79999 3.99999 4.79999C4.39999 4.79999 4.69999 5.09999 4.69999 5.49999V5.99999C4.79999 5.99999 4.89999 5.99999 4.99999 6.09999C5.19999 6.09999 5.29999 6.19999 5.49999 6.29999C5.69999 6.39999 5.69999 6.59999 5.69999 6.79999C5.69999 6.89999 5.7 7.09999 5.6 7.19999C5.5 7.39999 5.3 7.49999 5.1 7.49999C5 7.49999 4.99999 7.49999 4.69999 7.39999C4.39999 7.29999 3.89999 7.29999 3.69999 7.39999C3.59999 7.39999 3.6 7.49999 3.6 7.49999C3.6 7.49999 3.59999 7.59999 3.69999 7.59999C3.79999 7.69999 3.89999 7.69999 3.99999 7.79999C4.19999 7.89999 4.4 7.89999 4.6 7.99999C4.8 8.09999 4.99999 8.19999 5.19999 8.29999C5.39999 8.39999 5.59999 8.59999 5.69999 8.79999C5.79999 8.99999 5.89999 9.29999 5.89999 9.59999C5.79999 10.1 5.59999 10.5 5.19999 10.8ZM6.49999 2.5C6.39999 2.5 6.39998 2.4 6.39998 2.3V1.6C6.39998 1.5 6.49999 1.4 6.49999 1.4H9.39998C9.49998 1.4 9.49999 1.5 9.49999 1.6V2.3C9.49999 2.4 9.39998 2.5 9.39998 2.5H6.49999ZM13 6.99999H7.99999C7.59999 6.99999 7.19999 6.59999 7.19999 6.19999C7.19999 5.79999 7.49999 5.39999 7.99999 5.39999H13C13.4 5.39999 13.8 5.79999 13.8 6.19999C13.8 6.59999 13.4 6.99999 13 6.99999Z" fill="#A3A8AF"/>
    <path d="M12.6 10.8008C10.1 10.8008 8 12.9008 8 15.4008C8 17.9008 10.1 20.0008 12.6 20.0008C15.1 20.0008 17.2 17.9008 17.2 15.4008C17.2 12.9008 15.1 10.8008 12.6 10.8008ZM15.1 16.0008H13.2V17.9008C13.2 18.2008 12.9 18.5008 12.6 18.5008C12.3 18.5008 12 18.2008 12 17.9008V16.0008H10.1C9.79999 16.0008 9.5 15.7008 9.5 15.4008C9.5 15.1008 9.79999 14.8008 10.1 14.8008H12V12.9008C12 12.6008 12.3 12.3008 12.6 12.3008C12.9 12.3008 13.2 12.6008 13.2 12.9008V14.8008H15.1C15.4 14.8008 15.7 15.1008 15.7 15.4008C15.7 15.7008 15.4 16.0008 15.1 16.0008Z" fill="#A3A8AF"/>
</svg>