<svg width="24" height="25" viewBox="0 0 24 25" fill="none" xmlns="http://www.w3.org/2000/svg">
<g clip-path="url(#clip0)">
<path d="M8 18.1272C6.9 18.1272 6.01 19.0272 6.01 20.1272C6.01 21.2272 6.9 22.1272 8 22.1272C9.1 22.1272 10 21.2272 10 20.1272C10 19.0272 9.1 18.1272 8 18.1272ZM2 2.1272V4.1272H4L7.6 11.7172L6.25 14.1672C6.09 14.4472 6 14.7772 6 15.1272C6 16.2272 6.9 17.1272 8 17.1272H20V15.1272H8.42C8.28 15.1272 8.17 15.0172 8.17 14.8772L8.2 14.7572L9.1 13.1272H16.55C17.3 13.1272 17.96 12.7172 18.3 12.0972L21.88 5.6072C21.96 5.4672 22 5.2972 22 5.1272C22 4.5772 21.55 4.1272 21 4.1272H6.21L5.27 2.1272H2ZM18 18.1272C16.9 18.1272 16.01 19.0272 16.01 20.1272C16.01 21.2272 16.9 22.1272 18 22.1272C19.1 22.1272 20 21.2272 20 20.1272C20 19.0272 19.1 18.1272 18 18.1272Z" fill="#A3A8AF"/>
</g>
<defs>
<clipPath id="clip0">
<rect width="20" height="20" fill="white" transform="translate(2 2.1272)"/>
</clipPath>
</defs>
</svg>
