<svg width="20" height="20" viewBox="0 0 20 20" fill="none" xmlns="http://www.w3.org/2000/svg">
<path d="M19.7071 18.293L1.70711 0.292969L0.292892 1.70718L3.74467 5.15896C1.59084 5.71586 0 7.67218 0 10.0001C0 12.7615 2.23858 15.0001 5 15.0001H8V13.0001H5C3.34315 13.0001 2 11.6569 2 10.0001C2 8.34321 3.34315 7.00006 5 7.00006H5.58577L7.58577 9.00006H5V11.0001H9.58577L18.2929 19.7072L19.7071 18.293Z" fill="#A3A8AF"/>
<path d="M16.7077 12.4669L18.1356 13.8949C19.2726 12.9784 20 11.5742 20 10.0001C20 7.23864 17.7614 5.00006 15 5.00006H12V7.00006H15C16.6569 7.00006 18 8.34321 18 10.0001C18 11.0224 17.4886 11.9253 16.7077 12.4669Z" fill="#A3A8AF"/>
</svg>
